<?xml version="1.0" encoding="UTF-8"?>
<!DOCTYPE svg PUBLIC "-//W3C//DTD SVG 1.1//EN" "http://www.w3.org/Graphics/SVG/1.1/DTD/svg11.dtd">
<svg xmlns="http://www.w3.org/2000/svg" version="1.1" width="261px" height="301px" style="shape-rendering:geometricPrecision; text-rendering:geometricPrecision; image-rendering:optimizeQuality; fill-rule:evenodd; clip-rule:evenodd" xmlns:xlink="http://www.w3.org/1999/xlink">
<g><path style="opacity:1" fill="#ff5444" d="M 133.5,3.5 C 146.071,10.1969 158.405,17.3636 170.5,25C 171.448,25.4828 172.448,25.6495 173.5,25.5C 173.973,26.9063 174.973,27.573 176.5,27.5C 177.659,29.2503 179.326,30.2503 181.5,30.5C 182.287,32.1042 183.62,32.7709 185.5,32.5C 186.167,32.8333 186.833,33.1667 187.5,33.5C 186.63,35.2737 185.297,36.607 183.5,37.5C 180.22,38.8068 177.22,40.4735 174.5,42.5C 172.973,42.427 171.973,43.0937 171.5,44.5C 168.22,45.8068 165.22,47.4735 162.5,49.5C 160.973,49.427 159.973,50.0937 159.5,51.5C 156.22,52.8068 153.22,54.4735 150.5,56.5C 148.973,56.427 147.973,57.0937 147.5,58.5C 145.847,58.6596 144.514,59.3263 143.5,60.5C 140.281,61.0693 137.948,62.736 136.5,65.5C 136.167,65.5 135.833,65.5 135.5,65.5C 132.5,66.8333 129.5,66.8333 126.5,65.5C 123.331,64.0834 120.331,62.4168 117.5,60.5C 117.027,59.0937 116.027,58.427 114.5,58.5C 111.331,57.0834 108.331,55.4168 105.5,53.5C 103.879,51.058 101.546,49.7247 98.5,49.5C 97.5084,49.6716 96.8417,49.3382 96.5,48.5C 93.9385,45.2833 90.6052,43.2833 86.5,42.5C 85.5084,42.6716 84.8417,42.3382 84.5,41.5C 84.0269,40.0937 83.0269,39.427 81.5,39.5C 79.4561,38.4918 77.4561,37.4918 75.5,36.5C 75.1961,35.8501 74.8627,35.1835 74.5,34.5C 75.8665,33.16 77.1999,31.8267 78.5,30.5C 79.1667,30.5 79.8333,30.5 80.5,30.5C 83.5458,30.2753 85.8791,28.942 87.5,26.5C 88.6935,25.7281 89.6935,24.7281 90.5,23.5C 91.1667,23.5 91.8333,23.5 92.5,23.5C 95.5458,23.2753 97.8791,21.942 99.5,19.5C 101.5,17.8333 103.5,16.1667 105.5,14.5C 110.651,12.4236 115.651,10.0903 120.5,7.5C 124.356,4.74564 128.689,3.41231 133.5,3.5 Z"/></g>
<g><path style="opacity:1" fill="#ff8678" d="M 133.5,3.5 C 128.689,3.41231 124.356,4.74564 120.5,7.5C 120.5,6.83333 120.5,6.16667 120.5,5.5C 123.776,4.20123 127.11,2.86789 130.5,1.5C 132.038,1.45344 133.038,2.12011 133.5,3.5 Z"/></g>
<g><path style="opacity:0.969" fill="#ffd3cd" d="M 128.5,-0.5 C 129.833,-0.5 131.167,-0.5 132.5,-0.5C 146.167,8.16667 159.833,16.8333 173.5,25.5C 172.448,25.6495 171.448,25.4828 170.5,25C 158.405,17.3636 146.071,10.1969 133.5,3.5C 133.038,2.12011 132.038,1.45344 130.5,1.5C 127.11,2.86789 123.776,4.20123 120.5,5.5C 123.167,3.5 125.833,1.5 128.5,-0.5 Z"/></g>
<g><path style="opacity:0.918" fill="#ffd7d4" d="M 120.5,5.5 C 120.5,6.16667 120.5,6.83333 120.5,7.5C 115.651,10.0903 110.651,12.4236 105.5,14.5C 109.995,10.7487 114.995,7.74873 120.5,5.5 Z"/></g>
<g><path style="opacity:0.792" fill="#ffd6d2" d="M 105.5,14.5 C 103.5,16.1667 101.5,17.8333 99.5,19.5C 97.6854,20.6298 95.6854,21.2964 93.5,21.5C 97.1638,18.6654 101.164,16.332 105.5,14.5 Z"/></g>
<g><path style="opacity:0.996" fill="#ffd4d0" d="M 93.5,21.5 C 93.1667,22.1667 92.8333,22.8333 92.5,23.5C 91.8333,23.5 91.1667,23.5 90.5,23.5C 90.9731,22.0937 91.9731,21.427 93.5,21.5 Z"/></g>
<g><path style="opacity:1" fill="#ff8073" d="M 99.5,19.5 C 97.8791,21.942 95.5458,23.2753 92.5,23.5C 92.8333,22.8333 93.1667,22.1667 93.5,21.5C 95.6854,21.2964 97.6854,20.6298 99.5,19.5 Z"/></g>
<g><path style="opacity:0.667" fill="#ffcfcb" d="M 90.5,23.5 C 89.6935,24.7281 88.6935,25.7281 87.5,26.5C 86.8333,26.5 86.1667,26.5 85.5,26.5C 86.6594,24.7497 88.326,23.7497 90.5,23.5 Z"/></g>
<g><path style="opacity:0.49" fill="#ffbdb6" d="M 173.5,25.5 C 175.027,25.427 176.027,26.0937 176.5,27.5C 174.973,27.573 173.973,26.9063 173.5,25.5 Z"/></g>
<g><path style="opacity:0.686" fill="#ffd1cb" d="M 85.5,26.5 C 84.713,28.1042 83.3797,28.7709 81.5,28.5C 82.5137,27.3263 83.847,26.6596 85.5,26.5 Z"/></g>
<g><path style="opacity:0.651" fill="#ffb2aa" d="M 176.5,27.5 C 178.674,27.7497 180.341,28.7497 181.5,30.5C 179.326,30.2503 177.659,29.2503 176.5,27.5 Z"/></g>
<g><path style="opacity:0.871" fill="#ffd3ce" d="M 81.5,28.5 C 81.1667,29.1667 80.8333,29.8333 80.5,30.5C 79.8333,30.5 79.1667,30.5 78.5,30.5C 78.9731,29.0937 79.9731,28.427 81.5,28.5 Z"/></g>
<g><path style="opacity:1" fill="#ff7e6f" d="M 85.5,26.5 C 86.1667,26.5 86.8333,26.5 87.5,26.5C 85.8791,28.942 83.5458,30.2753 80.5,30.5C 80.8333,29.8333 81.1667,29.1667 81.5,28.5C 83.3797,28.7709 84.713,28.1042 85.5,26.5 Z"/></g>
<g><path style="opacity:0.627" fill="#ffafa7" d="M 181.5,30.5 C 183.153,30.6596 184.486,31.3263 185.5,32.5C 183.62,32.7709 182.287,32.1042 181.5,30.5 Z"/></g>
<g><path style="opacity:0.998" fill="#fdfbfb" d="M 73.5,33.5 C 73.2852,35.1788 73.9519,36.1788 75.5,36.5C 77.4561,37.4918 79.4561,38.4918 81.5,39.5C 81.9731,40.9063 82.9731,41.573 84.5,41.5C 84.8417,42.3382 85.5084,42.6716 86.5,42.5C 89.242,45.4213 92.5753,47.4213 96.5,48.5C 96.8417,49.3382 97.5084,49.6716 98.5,49.5C 100.566,51.1991 102.9,52.5324 105.5,53.5C 108.331,55.4168 111.331,57.0834 114.5,58.5C 114.973,59.9063 115.973,60.573 117.5,60.5C 120.331,62.4168 123.331,64.0834 126.5,65.5C 127.492,67.0265 128.992,67.6932 131,67.5C 133.008,67.6932 134.508,67.0265 135.5,65.5C 135.833,65.5 136.167,65.5 136.5,65.5C 139.429,64.5567 141.763,62.8901 143.5,60.5C 145.38,60.7709 146.713,60.1042 147.5,58.5C 149.027,58.573 150.027,57.9063 150.5,56.5C 154.252,56.0601 157.252,54.3934 159.5,51.5C 161.027,51.573 162.027,50.9063 162.5,49.5C 166.252,49.0601 169.252,47.3934 171.5,44.5C 173.027,44.573 174.027,43.9063 174.5,42.5C 178.252,42.0601 181.252,40.3934 183.5,37.5C 185.297,36.607 186.63,35.2737 187.5,33.5C 191.372,35.5974 195.039,37.9308 198.5,40.5C 196.302,40.1201 194.635,40.7868 193.5,42.5C 190.802,42.8449 188.802,44.1782 187.5,46.5C 186.391,46.5569 185.391,46.8902 184.5,47.5C 182.973,47.427 181.973,48.0937 181.5,49.5C 178.802,49.8449 176.802,51.1782 175.5,53.5C 174.391,53.5569 173.391,53.8902 172.5,54.5C 170.973,54.427 169.973,55.0937 169.5,56.5C 164.271,58.5221 159.271,61.0221 154.5,64C 151.893,65.5722 149.559,67.4055 147.5,69.5C 138.205,72.0987 138.205,74.7654 147.5,77.5C 147.973,78.9063 148.973,79.573 150.5,79.5C 152.566,81.1991 154.9,82.5324 157.5,83.5C 158.899,84.8897 160.566,85.8897 162.5,86.5C 164.566,88.1991 166.9,89.5324 169.5,90.5C 169.842,91.3382 170.508,91.6716 171.5,91.5C 171.973,92.9063 172.973,93.573 174.5,93.5C 176.566,95.1991 178.9,96.5324 181.5,97.5C 184.191,99.6227 187.191,101.289 190.5,102.5C 192.547,104.196 194.88,105.53 197.5,106.5C 199.171,106.332 200.504,105.665 201.5,104.5C 204.193,103.153 206.86,101.82 209.5,100.5C 215.563,99.1583 220.563,96.1583 224.5,91.5C 225.167,91.1667 225.833,90.8333 226.5,90.5C 229.326,90.0023 231.66,88.6689 233.5,86.5C 235.397,85.3504 237.397,84.3504 239.5,83.5C 241.853,82.6597 243.853,81.3264 245.5,79.5C 247.848,79.4077 249.514,78.4077 250.5,76.5C 251.671,75.6554 253.005,74.9887 254.5,74.5C 256.483,75.4706 258.483,76.4706 260.5,77.5C 260.5,79.1667 260.5,80.8333 260.5,82.5C 258.302,82.1201 256.635,82.7868 255.5,84.5C 252.22,85.8068 249.22,87.4735 246.5,89.5C 244.566,90.1103 242.899,91.1103 241.5,92.5C 237.575,93.5787 234.242,95.5787 231.5,98.5C 230.508,98.3284 229.842,98.6618 229.5,99.5C 224.996,101.011 220.996,103.344 217.5,106.5C 217.158,107.338 216.492,107.672 215.5,107.5C 212.296,108.383 209.629,110.05 207.5,112.5C 206.508,112.328 205.842,112.662 205.5,113.5C 204.391,113.557 203.391,113.89 202.5,114.5C 201.503,136.994 201.169,159.661 201.5,182.5C 203.099,182.768 204.432,182.434 205.5,181.5C 206.5,181.167 207.167,180.5 207.5,179.5C 209.027,179.573 210.027,178.906 210.5,177.5C 214.252,177.06 217.252,175.393 219.5,172.5C 221.848,172.408 223.514,171.408 224.5,169.5C 229.402,168.65 233.402,166.317 236.5,162.5C 239.578,162.413 241.911,161.08 243.5,158.5C 244.492,158.672 245.158,158.338 245.5,157.5C 249.808,157.017 253.141,155.017 255.5,151.5C 257.38,151.771 258.713,151.104 259.5,149.5C 259.833,149.5 260.167,149.5 260.5,149.5C 260.5,153.167 260.5,156.833 260.5,160.5C 259.209,160.263 258.209,160.596 257.5,161.5C 257.167,161.5 256.833,161.5 256.5,161.5C 254.973,161.427 253.973,162.094 253.5,163.5C 249.024,165.095 245.024,167.428 241.5,170.5C 238.22,171.807 235.22,173.473 232.5,175.5C 230.973,175.427 229.973,176.094 229.5,177.5C 227.967,179.245 225.967,180.245 223.5,180.5C 221.973,180.427 220.973,181.094 220.5,182.5C 218.973,182.427 217.973,183.094 217.5,184.5C 215.152,184.592 213.486,185.592 212.5,187.5C 212.167,187.5 211.833,187.5 211.5,187.5C 209.973,187.427 208.973,188.094 208.5,189.5C 206.973,189.427 205.973,190.094 205.5,191.5C 204.504,191.414 203.671,191.748 203,192.5C 202.5,215.164 202.333,237.831 202.5,260.5C 199.992,262.924 196.992,264.59 193.5,265.5C 193.5,243.167 193.5,220.833 193.5,198.5C 192.209,198.263 191.209,198.596 190.5,199.5C 178.923,205.451 167.923,212.118 157.5,219.5C 157.167,219.5 156.833,219.5 156.5,219.5C 153.802,219.845 151.802,221.178 150.5,223.5C 148.191,223.988 146.191,224.988 144.5,226.5C 141.249,227.454 138.582,229.12 136.5,231.5C 135.503,253.66 135.169,275.994 135.5,298.5C 135.167,299.167 134.833,299.833 134.5,300.5C 131.833,300.5 129.167,300.5 126.5,300.5C 126.167,299.833 125.833,299.167 125.5,298.5C 126.663,276.337 126.83,254.004 126,231.5C 124.028,229.768 121.861,228.435 119.5,227.5C 118.833,227.5 118.167,227.5 117.5,227.5C 117.027,226.094 116.027,225.427 114.5,225.5C 112.879,223.058 110.546,221.725 107.5,221.5C 106.508,221.672 105.842,221.338 105.5,220.5C 105.027,219.094 104.027,218.427 102.5,218.5C 100.879,216.058 98.5458,214.725 95.5,214.5C 93.5659,213.89 91.8993,212.89 90.5,211.5C 88.8791,209.058 86.5458,207.725 83.5,207.5C 81.5659,206.89 79.8993,205.89 78.5,204.5C 76.3379,202.103 73.6712,200.436 70.5,199.5C 69.791,198.596 68.791,198.263 67.5,198.5C 67.5,220.833 67.5,243.167 67.5,265.5C 63.8822,263.863 60.5488,261.863 57.5,259.5C 58.1665,248.338 58.4999,237.005 58.5,225.5C 58.4989,213.813 57.8323,202.48 56.5,191.5C 55.0975,190.069 53.4308,188.902 51.5,188C 50.2068,187.51 48.8734,187.343 47.5,187.5C 46.3065,186.728 45.3065,185.728 44.5,184.5C 43.0975,183.069 41.4308,181.902 39.5,181C 38.2068,180.51 36.8734,180.343 35.5,180.5C 35.5,180.167 35.5,179.833 35.5,179.5C 33.9674,177.755 31.9674,176.755 29.5,176.5C 27.8791,174.058 25.5458,172.725 22.5,172.5C 21.5084,172.672 20.8417,172.338 20.5,171.5C 20.0269,170.094 19.0269,169.427 17.5,169.5C 15.8791,167.058 13.5458,165.725 10.5,165.5C 9.50838,165.672 8.84171,165.338 8.5,164.5C 7.59942,162.273 5.93275,161.273 3.5,161.5C 2.79105,160.596 1.79105,160.263 0.5,160.5C 0.830637,182.007 0.497304,203.34 -0.5,224.5C -0.5,199.5 -0.5,174.5 -0.5,149.5C 0.166667,149.5 0.833333,149.5 1.5,149.5C 5.67402,152.088 10.0074,154.421 14.5,156.5C 14.9731,157.906 15.9731,158.573 17.5,158.5C 19.5664,160.199 21.8997,161.532 24.5,162.5C 28.8841,165.526 33.5508,168.193 38.5,170.5C 40.5664,172.199 42.8997,173.532 45.5,174.5C 47.0455,175.64 48.7121,176.64 50.5,177.5C 52.1667,178.833 53.8333,180.167 55.5,181.5C 56.5676,182.434 57.901,182.768 59.5,182.5C 59.8308,159.994 59.4974,137.66 58.5,115.5C 58.5,114.833 58.1667,114.5 57.5,114.5C 56.5084,114.672 55.8417,114.338 55.5,113.5C 53.8791,111.058 51.5458,109.725 48.5,109.5C 48.0269,108.094 47.0269,107.427 45.5,107.5C 44.5084,107.672 43.8417,107.338 43.5,106.5C 41.8791,104.058 39.5458,102.725 36.5,102.5C 36.0269,101.094 35.0269,100.427 33.5,100.5C 32.5084,100.672 31.8417,100.338 31.5,99.5C 29.8791,97.058 27.5458,95.7247 24.5,95.5C 22.5659,94.8897 20.8993,93.8897 19.5,92.5C 17.8791,90.058 15.5458,88.7247 12.5,88.5C 10.9731,88.573 9.97306,87.9063 9.5,86.5C 7.96741,84.7549 5.96741,83.7549 3.5,83.5C 2.43236,82.5655 1.09903,82.2322 -0.5,82.5C -0.5,80.5 -0.5,78.5 -0.5,76.5C 1.4832,75.5294 3.4832,74.5294 5.5,73.5C 6.89928,74.8897 8.56594,75.8897 10.5,76.5C 10.8417,77.3382 11.5084,77.6716 12.5,77.5C 12.9731,78.9063 13.9731,79.573 15.5,79.5C 17.5664,81.1991 19.8997,82.5324 22.5,83.5C 22.8417,84.3382 23.5084,84.6716 24.5,84.5C 24.9731,85.9063 25.9731,86.573 27.5,86.5C 29.5664,88.1991 31.8997,89.5324 34.5,90.5C 34.8417,91.3382 35.5084,91.6716 36.5,91.5C 36.9731,92.9063 37.9731,93.573 39.5,93.5C 40.6049,94.6005 41.9382,95.2671 43.5,95.5C 45.0326,97.2451 47.0326,98.2451 49.5,98.5C 53.1129,101.449 57.1129,103.949 61.5,106C 63.1966,106.384 64.8632,106.218 66.5,105.5C 69.7043,104.617 72.3709,102.95 74.5,100.5C 76.0269,100.573 77.0269,99.9063 77.5,98.5C 77.8333,98.5 78.1667,98.5 78.5,98.5C 81.7012,97.6214 84.3678,95.9547 86.5,93.5C 91.3195,91.9259 95.6528,89.5926 99.5,86.5C 101.848,86.4077 103.514,85.4077 104.5,83.5C 107.292,83.3775 109.292,82.0442 110.5,79.5C 110.833,79.5 111.167,79.5 111.5,79.5C 113.848,79.4077 115.514,78.4077 116.5,76.5C 119.695,75.1713 120.028,73.5046 117.5,71.5C 117.027,70.0937 116.027,69.427 114.5,69.5C 112.879,67.058 110.546,65.7247 107.5,65.5C 105.566,64.8897 103.899,63.8897 102.5,62.5C 100.879,60.058 98.5458,58.7247 95.5,58.5C 85.5114,52.8519 75.5114,47.1852 65.5,41.5C 64.4324,40.5655 63.099,40.2322 61.5,40.5C 65.1638,37.6654 69.1638,35.332 73.5,33.5 Z"/></g>
<g><path style="opacity:1" fill="#ffb4ac" d="M 78.5,30.5 C 77.1999,31.8267 75.8665,33.16 74.5,34.5C 74.8627,35.1835 75.1961,35.8501 75.5,36.5C 73.9519,36.1788 73.2852,35.1788 73.5,33.5C 74.6594,31.7497 76.326,30.7497 78.5,30.5 Z"/></g>
<g><path style="opacity:1" fill="#ff988d" d="M 81.5,39.5 C 83.0269,39.427 84.0269,40.0937 84.5,41.5C 82.9731,41.573 81.9731,40.9063 81.5,39.5 Z"/></g>
<g><path style="opacity:1" fill="#ffb4ab" d="M 183.5,37.5 C 181.252,40.3934 178.252,42.0601 174.5,42.5C 177.22,40.4735 180.22,38.8068 183.5,37.5 Z"/></g>
<g><path style="opacity:0.949" fill="#ffaaa1" d="M 61.5,40.5 C 63.099,40.2322 64.4324,40.5655 65.5,41.5C 63.0971,41.448 60.7638,41.7814 58.5,42.5C 58.9731,41.0937 59.9731,40.427 61.5,40.5 Z"/></g>
<g><path style="opacity:1" fill="#ffa299" d="M 198.5,40.5 C 199.492,40.3284 200.158,40.6618 200.5,41.5C 198.097,41.448 195.764,41.7814 193.5,42.5C 194.635,40.7868 196.302,40.1201 198.5,40.5 Z"/></g>
<g><path style="opacity:1" fill="#ff5343" d="M 200.5,41.5 C 203.208,45.1005 206.875,47.4338 211.5,48.5C 226.34,56.4159 240.673,65.0826 254.5,74.5C 253.005,74.9887 251.671,75.6554 250.5,76.5C 248.326,76.7497 246.659,77.7497 245.5,79.5C 243.216,79.9752 241.216,80.9752 239.5,82.5C 236.634,82.6329 234.634,83.9662 233.5,86.5C 230.669,87.0787 228.336,88.412 226.5,90.5C 225.833,90.8333 225.167,91.1667 224.5,91.5C 219.568,94.6904 214.568,97.6904 209.5,100.5C 206.86,101.82 204.193,103.153 201.5,104.5C 197.681,104.586 194.015,103.919 190.5,102.5C 187.191,101.289 184.191,99.6227 181.5,97.5C 179.879,95.058 177.546,93.7247 174.5,93.5C 174.027,92.0937 173.027,91.427 171.5,91.5C 170.508,91.6716 169.842,91.3382 169.5,90.5C 167.879,88.058 165.546,86.7247 162.5,86.5C 160.566,85.8897 158.899,84.8897 157.5,83.5C 155.879,81.058 153.546,79.7247 150.5,79.5C 148.973,79.573 147.973,78.9063 147.5,77.5C 146.884,75.5829 145.55,74.4162 143.5,74C 144.989,72.5315 146.323,71.0315 147.5,69.5C 155.339,65.9877 162.673,61.6544 169.5,56.5C 171.027,56.573 172.027,55.9063 172.5,54.5C 173.391,53.8902 174.391,53.5569 175.5,53.5C 177.853,52.6597 179.853,51.3264 181.5,49.5C 183.027,49.573 184.027,48.9063 184.5,47.5C 185.391,46.8902 186.391,46.5569 187.5,46.5C 189.853,45.6597 191.853,44.3264 193.5,42.5C 195.764,41.7814 198.097,41.448 200.5,41.5 Z"/></g>
<g><path style="opacity:1" fill="#ff5443" d="M 65.5,41.5 C 75.5114,47.1852 85.5114,52.8519 95.5,58.5C 97.5664,60.1991 99.8997,61.5324 102.5,62.5C 103.899,63.8897 105.566,64.8897 107.5,65.5C 109.566,67.1991 111.9,68.5324 114.5,69.5C 114.973,70.9063 115.973,71.573 117.5,71.5C 120.028,73.5046 119.695,75.1713 116.5,76.5C 114.326,76.7497 112.659,77.7497 111.5,79.5C 111.167,79.5 110.833,79.5 110.5,79.5C 107.95,80.0568 105.95,81.3901 104.5,83.5C 102.326,83.7497 100.659,84.7497 99.5,86.5C 94.6805,88.0741 90.3472,90.4074 86.5,93.5C 83.2485,94.4538 80.5819,96.1204 78.5,98.5C 78.1667,98.5 77.8333,98.5 77.5,98.5C 75.9731,98.427 74.9731,99.0937 74.5,100.5C 71.2957,101.383 68.6291,103.05 66.5,105.5C 64.8632,106.218 63.1966,106.384 61.5,106C 57.1129,103.949 53.1129,101.449 49.5,98.5C 47.9674,96.7549 45.9674,95.7549 43.5,95.5C 41.9382,95.2671 40.6049,94.6005 39.5,93.5C 39.0269,92.0937 38.0269,91.427 36.5,91.5C 35.5084,91.6716 34.8417,91.3382 34.5,90.5C 32.8791,88.058 30.5458,86.7247 27.5,86.5C 27.0269,85.0937 26.0269,84.427 24.5,84.5C 23.5084,84.6716 22.8417,84.3382 22.5,83.5C 20.8791,81.058 18.5458,79.7247 15.5,79.5C 15.0269,78.0937 14.0269,77.427 12.5,77.5C 11.5084,77.6716 10.8417,77.3382 10.5,76.5C 8.59887,75.065 8.26553,73.3983 9.5,71.5C 11.3356,69.412 13.6689,68.0787 16.5,67.5C 18.8477,67.4077 20.5144,66.4077 21.5,64.5C 23.0269,64.573 24.0269,63.9063 24.5,62.5C 27.5779,62.413 29.9112,61.0797 31.5,58.5C 33.8477,58.4077 35.5144,57.4077 36.5,55.5C 38.0269,55.573 39.0269,54.9063 39.5,53.5C 41.3797,53.7709 42.713,53.1042 43.5,51.5C 45.8477,51.4077 47.5144,50.4077 48.5,48.5C 50.0269,48.573 51.0269,47.9063 51.5,46.5C 54.3263,46.0023 56.6597,44.6689 58.5,42.5C 60.7638,41.7814 63.0971,41.448 65.5,41.5 Z"/></g>
<g><path style="opacity:1" fill="#ffaba1" d="M 174.5,42.5 C 174.027,43.9063 173.027,44.573 171.5,44.5C 171.973,43.0937 172.973,42.427 174.5,42.5 Z"/></g>
<g><path style="opacity:1" fill="#ff8072" d="M 200.5,41.5 C 204.457,43.4726 208.124,45.8059 211.5,48.5C 206.875,47.4338 203.208,45.1005 200.5,41.5 Z"/></g>
<g><path style="opacity:0.804" fill="#ffaea5" d="M 58.5,42.5 C 56.6597,44.6689 54.3263,46.0023 51.5,46.5C 53.3356,44.412 55.6689,43.0787 58.5,42.5 Z"/></g>
<g><path style="opacity:1" fill="#ff8e82" d="M 86.5,42.5 C 90.6052,43.2833 93.9385,45.2833 96.5,48.5C 92.5753,47.4213 89.242,45.4213 86.5,42.5 Z"/></g>
<g><path style="opacity:1" fill="#ff988c" d="M 193.5,42.5 C 191.853,44.3264 189.853,45.6597 187.5,46.5C 188.802,44.1782 190.802,42.8449 193.5,42.5 Z"/></g>
<g><path style="opacity:0.988" fill="#ffa79d" d="M 51.5,46.5 C 51.0269,47.9063 50.0269,48.573 48.5,48.5C 48.9731,47.0937 49.9731,46.427 51.5,46.5 Z"/></g>
<g><path style="opacity:1" fill="#ffb7af" d="M 171.5,44.5 C 169.252,47.3934 166.252,49.0601 162.5,49.5C 165.22,47.4735 168.22,45.8068 171.5,44.5 Z"/></g>
<g><path style="opacity:1" fill="#ffa69c" d="M 184.5,47.5 C 184.027,48.9063 183.027,49.573 181.5,49.5C 181.973,48.0937 182.973,47.427 184.5,47.5 Z"/></g>
<g><path style="opacity:1" fill="#ff988c" d="M 48.5,48.5 C 47.5144,50.4077 45.8477,51.4077 43.5,51.5C 44.6594,49.7497 46.326,48.7497 48.5,48.5 Z"/></g>
<g><path style="opacity:1" fill="#ffaea6" d="M 162.5,49.5 C 162.027,50.9063 161.027,51.573 159.5,51.5C 159.973,50.0937 160.973,49.427 162.5,49.5 Z"/></g>
<g><path style="opacity:1" fill="#ff887b" d="M 98.5,49.5 C 101.546,49.7247 103.879,51.058 105.5,53.5C 102.9,52.5324 100.566,51.1991 98.5,49.5 Z"/></g>
<g><path style="opacity:0.678" fill="#ffa49a" d="M 43.5,51.5 C 42.713,53.1042 41.3797,53.7709 39.5,53.5C 40.5137,52.3263 41.847,51.6596 43.5,51.5 Z"/></g>
<g><path style="opacity:1" fill="#ff9388" d="M 181.5,49.5 C 179.853,51.3264 177.853,52.6597 175.5,53.5C 176.802,51.1782 178.802,49.8449 181.5,49.5 Z"/></g>
<g><path style="opacity:0.863" fill="#ffa89e" d="M 39.5,53.5 C 39.0269,54.9063 38.0269,55.573 36.5,55.5C 36.9731,54.0937 37.9731,53.427 39.5,53.5 Z"/></g>
<g><path style="opacity:1" fill="#ffbbb3" d="M 159.5,51.5 C 157.252,54.3934 154.252,56.0601 150.5,56.5C 153.22,54.4735 156.22,52.8068 159.5,51.5 Z"/></g>
<g><path style="opacity:1" fill="#ffa197" d="M 172.5,54.5 C 172.027,55.9063 171.027,56.573 169.5,56.5C 169.973,55.0937 170.973,54.427 172.5,54.5 Z"/></g>
<g><path style="opacity:0.882" fill="#ff9589" d="M 36.5,55.5 C 35.5144,57.4077 33.8477,58.4077 31.5,58.5C 32.6594,56.7497 34.326,55.7497 36.5,55.5 Z"/></g>
<g><path style="opacity:1" fill="#ffb3ab" d="M 150.5,56.5 C 150.027,57.9063 149.027,58.573 147.5,58.5C 147.973,57.0937 148.973,56.427 150.5,56.5 Z"/></g>
<g><path style="opacity:1" fill="#ffccc7" d="M 95.5,58.5 C 98.5458,58.7247 100.879,60.058 102.5,62.5C 99.8997,61.5324 97.5664,60.1991 95.5,58.5 Z"/></g>
<g><path style="opacity:1" fill="#ff9185" d="M 114.5,58.5 C 116.027,58.427 117.027,59.0937 117.5,60.5C 115.973,60.573 114.973,59.9063 114.5,58.5 Z"/></g>
<g><path style="opacity:1" fill="#ffafa6" d="M 147.5,58.5 C 146.713,60.1042 145.38,60.7709 143.5,60.5C 144.514,59.3263 145.847,58.6596 147.5,58.5 Z"/></g>
<g><path style="opacity:1" fill="#ff9c91" d="M 169.5,56.5 C 162.673,61.6544 155.339,65.9877 147.5,69.5C 149.559,67.4055 151.893,65.5722 154.5,64C 159.271,61.0221 164.271,58.5221 169.5,56.5 Z"/></g>
<g><path style="opacity:1" fill="#ff8475" d="M 31.5,58.5 C 29.9112,61.0797 27.5779,62.413 24.5,62.5C 26.3356,60.412 28.6689,59.0787 31.5,58.5 Z"/></g>
<g><path style="opacity:1" fill="#ffbcb4" d="M 143.5,60.5 C 141.763,62.8901 139.429,64.5567 136.5,65.5C 137.948,62.736 140.281,61.0693 143.5,60.5 Z"/></g>
<g><path style="opacity:0.922" fill="#ff8e83" d="M 24.5,62.5 C 24.0269,63.9063 23.0269,64.573 21.5,64.5C 21.9731,63.0937 22.9731,62.427 24.5,62.5 Z"/></g>
<g><path style="opacity:0.941" fill="#ff8173" d="M 21.5,64.5 C 20.5144,66.4077 18.8477,67.4077 16.5,67.5C 17.6594,65.7497 19.326,64.7497 21.5,64.5 Z"/></g>
<g><path style="opacity:1" fill="#ffc9c3" d="M 107.5,65.5 C 110.546,65.7247 112.879,67.058 114.5,69.5C 111.9,68.5324 109.566,67.1991 107.5,65.5 Z"/></g>
<g><path style="opacity:1" fill="#ffb1a8" d="M 126.5,65.5 C 129.5,66.8333 132.5,66.8333 135.5,65.5C 134.508,67.0265 133.008,67.6932 131,67.5C 128.992,67.6932 127.492,67.0265 126.5,65.5 Z"/></g>
<g><path style="opacity:1" fill="#ffb0a7" d="M 114.5,69.5 C 116.027,69.427 117.027,70.0937 117.5,71.5C 115.973,71.573 114.973,70.9063 114.5,69.5 Z"/></g>
<g><path style="opacity:1" fill="#ff7768" d="M 147.5,69.5 C 146.323,71.0315 144.989,72.5315 143.5,74C 145.55,74.4162 146.884,75.5829 147.5,77.5C 138.205,74.7654 138.205,72.0987 147.5,69.5 Z"/></g>
<g><path style="opacity:1" fill="#ff8173" d="M 9.5,71.5 C 8.26553,73.3983 8.59887,75.065 10.5,76.5C 8.56594,75.8897 6.89928,74.8897 5.5,73.5C 6.60486,72.3995 7.93819,71.7329 9.5,71.5 Z"/></g>
<g><path style="opacity:1" fill="#ff9387" d="M 12.5,77.5 C 14.0269,77.427 15.0269,78.0937 15.5,79.5C 13.9731,79.573 12.9731,78.9063 12.5,77.5 Z"/></g>
<g><path style="opacity:1" fill="#ffc8c1" d="M 116.5,76.5 C 115.514,78.4077 113.848,79.4077 111.5,79.5C 112.659,77.7497 114.326,76.7497 116.5,76.5 Z"/></g>
<g><path style="opacity:1" fill="#ffaca3" d="M 250.5,76.5 C 249.514,78.4077 247.848,79.4077 245.5,79.5C 246.659,77.7497 248.326,76.7497 250.5,76.5 Z"/></g>
<g><path style="opacity:1" fill="#ff8e81" d="M 15.5,79.5 C 18.5458,79.7247 20.8791,81.058 22.5,83.5C 19.8997,82.5324 17.5664,81.1991 15.5,79.5 Z"/></g>
<g><path style="opacity:1" fill="#ff8478" d="M 150.5,79.5 C 153.546,79.7247 155.879,81.058 157.5,83.5C 154.9,82.5324 152.566,81.1991 150.5,79.5 Z"/></g>
<g><path style="opacity:1" fill="#ffbab2" d="M 110.5,79.5 C 109.292,82.0442 107.292,83.3775 104.5,83.5C 105.95,81.3901 107.95,80.0568 110.5,79.5 Z"/></g>
<g><path style="opacity:1" fill="#ffb7af" d="M 245.5,79.5 C 243.853,81.3264 241.853,82.6597 239.5,83.5C 239.5,83.1667 239.5,82.8333 239.5,82.5C 241.216,80.9752 243.216,79.9752 245.5,79.5 Z"/></g>
<g><path style="opacity:0.745" fill="#ffc1bb" d="M -0.5,82.5 C 1.09903,82.2322 2.43236,82.5655 3.5,83.5C 2.5,83.5 1.5,83.5 0.5,83.5C 0.178095,105.575 0.511428,127.575 1.5,149.5C 0.833333,149.5 0.166667,149.5 -0.5,149.5C -0.5,127.167 -0.5,104.833 -0.5,82.5 Z"/></g>
<g><path style="opacity:1" fill="#ff8375" d="M 239.5,82.5 C 239.5,82.8333 239.5,83.1667 239.5,83.5C 237.397,84.3504 235.397,85.3504 233.5,86.5C 234.634,83.9662 236.634,82.6329 239.5,82.5 Z"/></g>
<g><path style="opacity:1" fill="#ff978d" d="M 24.5,84.5 C 26.0269,84.427 27.0269,85.0937 27.5,86.5C 25.9731,86.573 24.9731,85.9063 24.5,84.5 Z"/></g>
<g><path style="opacity:1" fill="#ff5444" d="M 3.5,83.5 C 5.03259,85.2451 7.03259,86.2451 9.5,86.5C 9.97306,87.9063 10.9731,88.573 12.5,88.5C 14.5664,90.1991 16.8997,91.5324 19.5,92.5C 20.8993,93.8897 22.5659,94.8897 24.5,95.5C 26.5664,97.1991 28.8997,98.5324 31.5,99.5C 31.8417,100.338 32.5084,100.672 33.5,100.5C 33.9731,101.906 34.9731,102.573 36.5,102.5C 38.5664,104.199 40.8997,105.532 43.5,106.5C 43.8417,107.338 44.5084,107.672 45.5,107.5C 45.9731,108.906 46.9731,109.573 48.5,109.5C 50.5664,111.199 52.8997,112.532 55.5,113.5C 55.8417,114.338 56.5084,114.672 57.5,114.5C 57.6666,136.503 57.5,158.503 57,180.5C 55.1575,178.829 52.9908,177.829 50.5,177.5C 48.7121,176.64 47.0455,175.64 45.5,174.5C 43.8791,172.058 41.5458,170.725 38.5,170.5C 33.5508,168.193 28.8841,165.526 24.5,162.5C 22.8791,160.058 20.5458,158.725 17.5,158.5C 17.0269,157.094 16.0269,156.427 14.5,156.5C 10.0074,154.421 5.67402,152.088 1.5,149.5C 0.511428,127.575 0.178095,105.575 0.5,83.5C 1.5,83.5 2.5,83.5 3.5,83.5 Z"/></g>
<g><path style="opacity:1" fill="#ffc0ba" d="M 3.5,83.5 C 5.96741,83.7549 7.96741,84.7549 9.5,86.5C 7.03259,86.2451 5.03259,85.2451 3.5,83.5 Z"/></g>
<g><path style="opacity:1" fill="#ffcbc5" d="M 104.5,83.5 C 103.514,85.4077 101.848,86.4077 99.5,86.5C 100.659,84.7497 102.326,83.7497 104.5,83.5 Z"/></g>
<g><path style="opacity:1" fill="#ff5343" d="M 259.5,149.5 C 257.847,149.66 256.514,150.326 255.5,151.5C 252.126,153.517 248.793,155.517 245.5,157.5C 245.158,158.338 244.492,158.672 243.5,158.5C 240.669,159.079 238.336,160.412 236.5,162.5C 232.454,164.839 228.454,167.173 224.5,169.5C 222.326,169.75 220.659,170.75 219.5,172.5C 216.22,173.807 213.22,175.473 210.5,177.5C 208.973,177.427 207.973,178.094 207.5,179.5C 206.417,179.539 205.417,179.873 204.5,180.5C 204.167,169.667 203.833,158.833 203.5,148C 203.543,136.344 204.209,124.844 205.5,113.5C 205.842,112.662 206.508,112.328 207.5,112.5C 210.704,111.617 213.371,109.95 215.5,107.5C 216.492,107.672 217.158,107.338 217.5,106.5C 220.909,105.298 224.242,103.798 227.5,102C 228.381,101.292 229.047,100.458 229.5,99.5C 229.842,98.6618 230.508,98.3284 231.5,98.5C 234.269,97.5627 236.936,96.3961 239.5,95C 240.381,94.2917 241.047,93.4584 241.5,92.5C 243.989,92.7593 245.656,91.7593 246.5,89.5C 250.252,89.0601 253.252,87.3934 255.5,84.5C 256.583,84.4606 257.583,84.1272 258.5,83.5C 259.5,105.49 259.833,127.49 259.5,149.5 Z"/></g>
<g><path style="opacity:1" fill="#ffa298" d="M 255.5,84.5 C 253.252,87.3934 250.252,89.0601 246.5,89.5C 249.22,87.4735 252.22,85.8068 255.5,84.5 Z"/></g>
<g><path style="opacity:1" fill="#ff9185" d="M 27.5,86.5 C 30.5458,86.7247 32.8791,88.058 34.5,90.5C 31.8997,89.5324 29.5664,88.1991 27.5,86.5 Z"/></g>
<g><path style="opacity:1" fill="#ffb7ae" d="M 99.5,86.5 C 95.6528,89.5926 91.3195,91.9259 86.5,93.5C 90.3472,90.4074 94.6805,88.0741 99.5,86.5 Z"/></g>
<g><path style="opacity:1" fill="#ff887b" d="M 162.5,86.5 C 165.546,86.7247 167.879,88.058 169.5,90.5C 166.9,89.5324 164.566,88.1991 162.5,86.5 Z"/></g>
<g><path style="opacity:1" fill="#ffc6c0" d="M 12.5,88.5 C 15.5458,88.7247 17.8791,90.058 19.5,92.5C 16.8997,91.5324 14.5664,90.1991 12.5,88.5 Z"/></g>
<g><path style="opacity:1" fill="#ffb0a8" d="M 233.5,86.5 C 231.66,88.6689 229.326,90.0023 226.5,90.5C 228.336,88.412 230.669,87.0787 233.5,86.5 Z"/></g>
<g><path style="opacity:1" fill="#ff9b91" d="M 36.5,91.5 C 38.0269,91.427 39.0269,92.0937 39.5,93.5C 37.9731,93.573 36.9731,92.9063 36.5,91.5 Z"/></g>
<g><path style="opacity:1" fill="#ff9084" d="M 171.5,91.5 C 173.027,91.427 174.027,92.0937 174.5,93.5C 172.973,93.573 171.973,92.9063 171.5,91.5 Z"/></g>
<g><path style="opacity:1" fill="#ff8f82" d="M 246.5,89.5 C 245.656,91.7593 243.989,92.7593 241.5,92.5C 242.899,91.1103 244.566,90.1103 246.5,89.5 Z"/></g>
<g><path style="opacity:1" fill="#ff8b7f" d="M 174.5,93.5 C 177.546,93.7247 179.879,95.058 181.5,97.5C 178.9,96.5324 176.566,95.1991 174.5,93.5 Z"/></g>
<g><path style="opacity:1" fill="#ffa79d" d="M 241.5,92.5 C 241.047,93.4584 240.381,94.2917 239.5,95C 236.936,96.3961 234.269,97.5627 231.5,98.5C 234.242,95.5787 237.575,93.5787 241.5,92.5 Z"/></g>
<g><path style="opacity:1" fill="#ffc3bd" d="M 24.5,95.5 C 27.5458,95.7247 29.8791,97.058 31.5,99.5C 28.8997,98.5324 26.5664,97.1991 24.5,95.5 Z"/></g>
<g><path style="opacity:1" fill="#ff7e70" d="M 43.5,95.5 C 45.9674,95.7549 47.9674,96.7549 49.5,98.5C 47.0326,98.2451 45.0326,97.2451 43.5,95.5 Z"/></g>
<g><path style="opacity:1" fill="#ffada4" d="M 86.5,93.5 C 84.3678,95.9547 81.7012,97.6214 78.5,98.5C 80.5819,96.1204 83.2485,94.4538 86.5,93.5 Z"/></g>
<g><path style="opacity:1" fill="#ffccc6" d="M 224.5,91.5 C 220.563,96.1583 215.563,99.1583 209.5,100.5C 214.568,97.6904 219.568,94.6904 224.5,91.5 Z"/></g>
<g><path style="opacity:1" fill="#ffa49b" d="M 77.5,98.5 C 77.0269,99.9063 76.0269,100.573 74.5,100.5C 74.9731,99.0937 75.9731,98.427 77.5,98.5 Z"/></g>
<g><path style="opacity:1" fill="#ffb9b1" d="M 33.5,100.5 C 35.0269,100.427 36.0269,101.094 36.5,102.5C 34.9731,102.573 33.9731,101.906 33.5,100.5 Z"/></g>
<g><path style="opacity:1" fill="#ff9c91" d="M 229.5,99.5 C 229.047,100.458 228.381,101.292 227.5,102C 224.242,103.798 220.909,105.298 217.5,106.5C 220.996,103.344 224.996,101.011 229.5,99.5 Z"/></g>
<g><path style="opacity:1" fill="#ffc0b9" d="M 36.5,102.5 C 39.5458,102.725 41.8791,104.058 43.5,106.5C 40.8997,105.532 38.5664,104.199 36.5,102.5 Z"/></g>
<g><path style="opacity:1" fill="#ffb2aa" d="M 74.5,100.5 C 72.3709,102.95 69.7043,104.617 66.5,105.5C 68.6291,103.05 71.2957,101.383 74.5,100.5 Z"/></g>
<g><path style="opacity:1" fill="#ff7667" d="M 190.5,102.5 C 194.015,103.919 197.681,104.586 201.5,104.5C 200.504,105.665 199.171,106.332 197.5,106.5C 194.88,105.53 192.547,104.196 190.5,102.5 Z"/></g>
<g><path style="opacity:1" fill="#ffb4ac" d="M 45.5,107.5 C 47.0269,107.427 48.0269,108.094 48.5,109.5C 46.9731,109.573 45.9731,108.906 45.5,107.5 Z"/></g>
<g><path style="opacity:1" fill="#b2b2b2" d="M 140.5,109.5 C 132.778,109.233 125.111,109.566 117.5,110.5C 120.938,109.177 124.771,108.51 129,108.5C 133.015,108.501 136.849,108.835 140.5,109.5 Z"/></g>
<g><path style="opacity:1" fill="#4a4a4a" d="M 140.5,109.5 C 140.833,109.5 141.167,109.5 141.5,109.5C 141.833,110.167 142.167,110.833 142.5,111.5C 131.666,109.824 121,110.491 110.5,113.5C 112.185,111.182 114.519,110.182 117.5,110.5C 125.111,109.566 132.778,109.233 140.5,109.5 Z"/></g>
<g><path style="opacity:1" fill="#ffbdb5" d="M 48.5,109.5 C 51.5458,109.725 53.8791,111.058 55.5,113.5C 52.8997,112.532 50.5664,111.199 48.5,109.5 Z"/></g>
<g><path style="opacity:1" fill="#202020" d="M 142.5,111.5 C 145.004,112.639 147.67,113.306 150.5,113.5C 150.842,114.338 151.508,114.672 152.5,114.5C 152.973,115.906 153.973,116.573 155.5,116.5C 156.585,118.587 158.251,119.92 160.5,120.5C 162.555,122.555 164.221,124.888 165.5,127.5C 167.104,131.75 169.104,135.75 171.5,139.5C 171.5,139.833 171.5,140.167 171.5,140.5C 172.833,147.833 172.833,155.167 171.5,162.5C 171.122,164.921 170.455,167.254 169.5,169.5C 167.12,171.582 165.454,174.249 164.5,177.5C 162.413,178.585 161.08,180.251 160.5,182.5C 155.792,185.515 151.125,188.515 146.5,191.5C 144.901,191.232 143.568,191.566 142.5,192.5C 134.826,192.666 127.159,192.5 119.5,192C 116.753,190.396 113.753,189.562 110.5,189.5C 108.77,188.974 107.436,187.974 106.5,186.5C 105.089,184.086 103.089,182.419 100.5,181.5C 99.8333,181.167 99.1667,180.833 98.5,180.5C 97.9202,178.251 96.5869,176.585 94.5,175.5C 94.2451,173.033 93.2451,171.033 91.5,169.5C 91.8799,167.302 91.2132,165.635 89.5,164.5C 89.5,163.167 89.5,161.833 89.5,160.5C 88.746,155.537 88.4126,150.537 88.5,145.5C 89.2103,140.659 90.5437,135.993 92.5,131.5C 93.9063,131.027 94.573,130.027 94.5,128.5C 99.2576,122.738 104.591,117.738 110.5,113.5C 121,110.491 131.666,109.824 142.5,111.5 Z"/></g>
<g><path style="opacity:1" fill="#858585" d="M 141.5,109.5 C 144.947,110.083 147.947,111.416 150.5,113.5C 147.67,113.306 145.004,112.639 142.5,111.5C 142.167,110.833 141.833,110.167 141.5,109.5 Z"/></g>
<g><path style="opacity:1" fill="#ffa9a0" d="M 215.5,107.5 C 213.371,109.95 210.704,111.617 207.5,112.5C 209.629,110.05 212.296,108.383 215.5,107.5 Z"/></g>
<g><path style="opacity:1" fill="#a3a3a3" d="M 152.5,114.5 C 154.027,114.427 155.027,115.094 155.5,116.5C 153.973,116.573 152.973,115.906 152.5,114.5 Z"/></g>
<g><path style="opacity:0.263" fill="#ff786a" d="M 260.5,82.5 C 260.5,104.833 260.5,127.167 260.5,149.5C 260.167,149.5 259.833,149.5 259.5,149.5C 259.833,127.49 259.5,105.49 258.5,83.5C 257.583,84.1272 256.583,84.4606 255.5,84.5C 256.635,82.7868 258.302,82.1201 260.5,82.5 Z"/></g>
<g><path style="opacity:1" fill="#ff9185" d="M 57.5,114.5 C 58.1667,114.5 58.5,114.833 58.5,115.5C 58.5,137.5 58.5,159.5 58.5,181.5C 57.5,181.5 56.5,181.5 55.5,181.5C 53.8333,180.167 52.1667,178.833 50.5,177.5C 52.9908,177.829 55.1575,178.829 57,180.5C 57.5,158.503 57.6666,136.503 57.5,114.5 Z"/></g>
<g><path style="opacity:1" fill="#a2a2a2" d="M 155.5,116.5 C 157.749,117.08 159.415,118.413 160.5,120.5C 158.251,119.92 156.585,118.587 155.5,116.5 Z"/></g>
<g><path style="opacity:1" fill="#ff9388" d="M 205.5,113.5 C 204.209,124.844 203.543,136.344 203.5,148C 203.833,158.833 204.167,169.667 204.5,180.5C 205.417,179.873 206.417,179.539 207.5,179.5C 207.167,180.5 206.5,181.167 205.5,181.5C 204.5,181.5 203.5,181.5 202.5,181.5C 202.5,159.167 202.5,136.833 202.5,114.5C 203.391,113.89 204.391,113.557 205.5,113.5 Z"/></g>
<g><path style="opacity:1" fill="#ffcdc8" d="M 58.5,115.5 C 59.4974,137.66 59.8308,159.994 59.5,182.5C 57.901,182.768 56.5676,182.434 55.5,181.5C 56.5,181.5 57.5,181.5 58.5,181.5C 58.5,159.5 58.5,137.5 58.5,115.5 Z"/></g>
<g><path style="opacity:1" fill="#7b7b7b" d="M 110.5,113.5 C 104.591,117.738 99.2576,122.738 94.5,128.5C 97.8926,121.441 103.226,116.441 110.5,113.5 Z"/></g>
<g><path style="opacity:1" fill="#ffcfc9" d="M 202.5,114.5 C 202.5,136.833 202.5,159.167 202.5,181.5C 203.5,181.5 204.5,181.5 205.5,181.5C 204.432,182.434 203.099,182.768 201.5,182.5C 201.169,159.661 201.503,136.994 202.5,114.5 Z"/></g>
<g><path style="opacity:1" fill="#848484" d="M 94.5,128.5 C 94.573,130.027 93.9063,131.027 92.5,131.5C 92.427,129.973 93.0937,128.973 94.5,128.5 Z"/></g>
<g><path style="opacity:1" fill="#6e6e6e" d="M 165.5,127.5 C 166.458,127.953 167.292,128.619 168,129.5C 170.015,132.531 171.181,135.864 171.5,139.5C 169.104,135.75 167.104,131.75 165.5,127.5 Z"/></g>
<g><path style="opacity:1" fill="#a2a2a2" d="M 92.5,131.5 C 90.5437,135.993 89.2103,140.659 88.5,145.5C 88.1667,145.5 87.8333,145.5 87.5,145.5C 87.415,140.08 89.0816,135.413 92.5,131.5 Z"/></g>
<g><path style="opacity:1" fill="#727272" d="M 87.5,145.5 C 87.8333,145.5 88.1667,145.5 88.5,145.5C 88.4126,150.537 88.746,155.537 89.5,160.5C 87.5583,155.944 86.8917,150.944 87.5,145.5 Z"/></g>
<g><path style="opacity:1" fill="#ffa9a1" d="M 259.5,149.5 C 258.713,151.104 257.38,151.771 255.5,151.5C 256.514,150.326 257.847,149.66 259.5,149.5 Z"/></g>
<g><path style="opacity:1" fill="#767676" d="M 171.5,140.5 C 172.222,140.918 172.722,141.584 173,142.5C 173.667,148.5 173.667,154.5 173,160.5C 172.722,161.416 172.222,162.082 171.5,162.5C 172.833,155.167 172.833,147.833 171.5,140.5 Z"/></g>
<g><path style="opacity:1" fill="#ffcfc9" d="M 255.5,151.5 C 253.141,155.017 249.808,157.017 245.5,157.5C 248.793,155.517 252.126,153.517 255.5,151.5 Z"/></g>
<g><path style="opacity:1" fill="#ff8f83" d="M 14.5,156.5 C 16.0269,156.427 17.0269,157.094 17.5,158.5C 15.9731,158.573 14.9731,157.906 14.5,156.5 Z"/></g>
<g><path style="opacity:1" fill="#ff897d" d="M 17.5,158.5 C 20.5458,158.725 22.8791,160.058 24.5,162.5C 21.8997,161.532 19.5664,160.199 17.5,158.5 Z"/></g>
<g><path style="opacity:1" fill="#9c9c9c" d="M 3.5,161.5 C 1.5108,183.141 0.844134,205.141 1.5,227.5C 0.833333,227.167 0.166667,226.833 -0.5,226.5C -0.5,225.833 -0.5,225.167 -0.5,224.5C 0.497304,203.34 0.830637,182.007 0.5,160.5C 1.79105,160.263 2.79105,160.596 3.5,161.5 Z"/></g>
<g><path style="opacity:1" fill="#ffbeb6" d="M 243.5,158.5 C 241.911,161.08 239.578,162.413 236.5,162.5C 238.336,160.412 240.669,159.079 243.5,158.5 Z"/></g>
<g><path style="opacity:1" fill="#555555" d="M 3.5,161.5 C 5.93275,161.273 7.59942,162.273 8.5,164.5C 6.68545,163.37 4.68545,162.704 2.5,162.5C 2.5,184.167 2.5,205.833 2.5,227.5C 2.16667,227.5 1.83333,227.5 1.5,227.5C 0.844134,205.141 1.5108,183.141 3.5,161.5 Z"/></g>
<g><path style="opacity:1" fill="#212121" d="M 8.5,164.5 C 8.84171,165.338 9.50838,165.672 10.5,165.5C 12.5664,167.199 14.8997,168.532 17.5,169.5C 17.9731,170.906 18.9731,171.573 20.5,171.5C 20.8417,172.338 21.5084,172.672 22.5,172.5C 24.5664,174.199 26.8997,175.532 29.5,176.5C 31.0326,178.245 33.0326,179.245 35.5,179.5C 35.5,179.833 35.5,180.167 35.5,180.5C 38.0534,182.584 41.0534,183.917 44.5,184.5C 45.3065,185.728 46.3065,186.728 47.5,187.5C 50.0534,189.584 53.0534,190.917 56.5,191.5C 56.5,191.833 56.5,192.167 56.5,192.5C 57.1557,214.526 56.489,236.192 54.5,257.5C 52.847,257.34 51.5137,256.674 50.5,255.5C 50.0269,254.094 49.0269,253.427 47.5,253.5C 44.0078,252.59 41.0078,250.924 38.5,248.5C 38.0269,247.094 37.0269,246.427 35.5,246.5C 33.847,246.34 32.5137,245.674 31.5,244.5C 31.0269,243.094 30.0269,242.427 28.5,242.5C 26.847,242.34 25.5137,241.674 24.5,240.5C 24.0269,239.094 23.0269,238.427 21.5,238.5C 19.847,238.34 18.5137,237.674 17.5,236.5C 16.656,234.241 14.9893,233.241 12.5,233.5C 9.99589,232.416 7.66256,231.083 5.5,229.5C 5.02694,228.094 4.02694,227.427 2.5,227.5C 2.5,205.833 2.5,184.167 2.5,162.5C 4.68545,162.704 6.68545,163.37 8.5,164.5 Z"/></g>
<g><path style="opacity:1" fill="#9a9a9a" d="M 256.5,161.5 C 256.5,161.833 256.5,162.167 256.5,162.5C 255.609,163.11 254.609,163.443 253.5,163.5C 253.973,162.094 254.973,161.427 256.5,161.5 Z"/></g>
<g><path style="opacity:1" fill="#212121" d="M 256.5,162.5 C 258.489,183.808 259.156,205.474 258.5,227.5C 256.251,228.08 254.585,229.413 253.5,231.5C 244.832,234.158 237.165,238.491 230.5,244.5C 222.731,247.238 215.731,251.238 209.5,256.5C 209.158,257.338 208.492,257.672 207.5,257.5C 206.417,257.539 205.417,257.873 204.5,258.5C 203.334,236.841 203.167,215.174 204,193.5C 204.717,192.956 205.217,192.289 205.5,191.5C 207.027,191.573 208.027,190.906 208.5,189.5C 210.027,189.573 211.027,188.906 211.5,187.5C 211.833,187.5 212.167,187.5 212.5,187.5C 214.565,187.047 216.232,186.047 217.5,184.5C 219.027,184.573 220.027,183.906 220.5,182.5C 222.027,182.573 223.027,181.906 223.5,180.5C 225.967,180.245 227.967,179.245 229.5,177.5C 231.027,177.573 232.027,176.906 232.5,175.5C 236.252,175.06 239.252,173.393 241.5,170.5C 246.021,168.926 250.021,166.592 253.5,163.5C 254.609,163.443 255.609,163.11 256.5,162.5 Z"/></g>
<g><path style="opacity:1" fill="#3f3f3f" d="M 256.5,162.5 C 256.5,162.167 256.5,161.833 256.5,161.5C 256.833,161.5 257.167,161.5 257.5,161.5C 258.832,172.146 259.499,183.146 259.5,194.5C 259.5,205.672 259.167,216.672 258.5,227.5C 259.156,205.474 258.489,183.808 256.5,162.5 Z"/></g>
<g><path style="opacity:0.773" fill="#7f7f7f" d="M 257.5,161.5 C 258.209,160.596 259.209,160.263 260.5,160.5C 260.5,183.167 260.5,205.833 260.5,228.5C 258.313,229.758 255.98,230.758 253.5,231.5C 254.585,229.413 256.251,228.08 258.5,227.5C 259.167,216.672 259.5,205.672 259.5,194.5C 259.499,183.146 258.832,172.146 257.5,161.5 Z"/></g>
<g><path style="opacity:1" fill="#7e7e7e" d="M 89.5,164.5 C 91.2132,165.635 91.8799,167.302 91.5,169.5C 90.4625,168.07 89.7959,166.403 89.5,164.5 Z"/></g>
<g><path style="opacity:1" fill="#ffc6bf" d="M 236.5,162.5 C 233.402,166.317 229.402,168.65 224.5,169.5C 228.454,167.173 232.454,164.839 236.5,162.5 Z"/></g>
<g><path style="opacity:1" fill="#868686" d="M 253.5,163.5 C 250.021,166.592 246.021,168.926 241.5,170.5C 245.024,167.428 249.024,165.095 253.5,163.5 Z"/></g>
<g><path style="opacity:1" fill="#a1a1a1" d="M 10.5,165.5 C 13.5458,165.725 15.8791,167.058 17.5,169.5C 14.8997,168.532 12.5664,167.199 10.5,165.5 Z"/></g>
<g><path style="opacity:1" fill="#7f7f7f" d="M 17.5,169.5 C 19.0269,169.427 20.0269,170.094 20.5,171.5C 18.9731,171.573 17.9731,170.906 17.5,169.5 Z"/></g>
<g><path style="opacity:1" fill="#747474" d="M 169.5,169.5 C 168.621,172.701 166.955,175.368 164.5,177.5C 165.454,174.249 167.12,171.582 169.5,169.5 Z"/></g>
<g><path style="opacity:1" fill="#ffb0a7" d="M 224.5,169.5 C 223.514,171.408 221.848,172.408 219.5,172.5C 220.659,170.75 222.326,169.75 224.5,169.5 Z"/></g>
<g><path style="opacity:1" fill="#ff8174" d="M 38.5,170.5 C 41.5458,170.725 43.8791,172.058 45.5,174.5C 42.8997,173.532 40.5664,172.199 38.5,170.5 Z"/></g>
<g><path style="opacity:1" fill="#ababab" d="M 91.5,169.5 C 93.2451,171.033 94.2451,173.033 94.5,175.5C 92.7549,173.967 91.7549,171.967 91.5,169.5 Z"/></g>
<g><path style="opacity:1" fill="#848484" d="M 241.5,170.5 C 239.252,173.393 236.252,175.06 232.5,175.5C 235.22,173.473 238.22,171.807 241.5,170.5 Z"/></g>
<g><path style="opacity:1" fill="#9c9c9c" d="M 22.5,172.5 C 25.5458,172.725 27.8791,174.058 29.5,176.5C 26.8997,175.532 24.5664,174.199 22.5,172.5 Z"/></g>
<g><path style="opacity:1" fill="#ffb3ab" d="M 219.5,172.5 C 217.252,175.393 214.252,177.06 210.5,177.5C 213.22,175.473 216.22,173.807 219.5,172.5 Z"/></g>
<g><path style="opacity:1" fill="#8f8f8f" d="M 232.5,175.5 C 232.027,176.906 231.027,177.573 229.5,177.5C 229.973,176.094 230.973,175.427 232.5,175.5 Z"/></g>
<g><path style="opacity:1" fill="#a7a7a7" d="M 29.5,176.5 C 31.9674,176.755 33.9674,177.755 35.5,179.5C 33.0326,179.245 31.0326,178.245 29.5,176.5 Z"/></g>
<g><path style="opacity:1" fill="#aaaaaa" d="M 94.5,175.5 C 96.5869,176.585 97.9202,178.251 98.5,180.5C 96.4131,179.415 95.0798,177.749 94.5,175.5 Z"/></g>
<g><path style="opacity:1" fill="#ffa9a1" d="M 210.5,177.5 C 210.027,178.906 209.027,179.573 207.5,179.5C 207.973,178.094 208.973,177.427 210.5,177.5 Z"/></g>
<g><path style="opacity:1" fill="#aaaaaa" d="M 35.5,180.5 C 36.8734,180.343 38.2068,180.51 39.5,181C 41.4308,181.902 43.0975,183.069 44.5,184.5C 41.0534,183.917 38.0534,182.584 35.5,180.5 Z"/></g>
<g><path style="opacity:1" fill="#929292" d="M 164.5,177.5 C 163.92,179.749 162.587,181.415 160.5,182.5C 161.08,180.251 162.413,178.585 164.5,177.5 Z"/></g>
<g><path style="opacity:1" fill="#9e9e9e" d="M 223.5,180.5 C 223.027,181.906 222.027,182.573 220.5,182.5C 220.973,181.094 221.973,180.427 223.5,180.5 Z"/></g>
<g><path style="opacity:1" fill="#989898" d="M 160.5,182.5 C 156.828,187.005 152.161,190.005 146.5,191.5C 151.125,188.515 155.792,185.515 160.5,182.5 Z"/></g>
<g><path style="opacity:1" fill="#898989" d="M 220.5,182.5 C 220.027,183.906 219.027,184.573 217.5,184.5C 217.973,183.094 218.973,182.427 220.5,182.5 Z"/></g>
<g><path style="opacity:1" fill="#595959" d="M 100.5,181.5 C 103.089,182.419 105.089,184.086 106.5,186.5C 103.911,185.581 101.911,183.914 100.5,181.5 Z"/></g>
<g><path style="opacity:1" fill="#a0a0a0" d="M 217.5,184.5 C 216.232,186.047 214.565,187.047 212.5,187.5C 213.486,185.592 215.152,184.592 217.5,184.5 Z"/></g>
<g><path style="opacity:1" fill="#a6a6a6" d="M 47.5,187.5 C 48.8734,187.343 50.2068,187.51 51.5,188C 53.4308,188.902 55.0975,190.069 56.5,191.5C 53.0534,190.917 50.0534,189.584 47.5,187.5 Z"/></g>
<g><path style="opacity:1" fill="#999999" d="M 211.5,187.5 C 211.027,188.906 210.027,189.573 208.5,189.5C 208.973,188.094 209.973,187.427 211.5,187.5 Z"/></g>
<g><path style="opacity:1" fill="#848484" d="M 208.5,189.5 C 208.027,190.906 207.027,191.573 205.5,191.5C 205.973,190.094 206.973,189.427 208.5,189.5 Z"/></g>
<g><path style="opacity:1" fill="#525252" d="M 110.5,189.5 C 113.753,189.562 116.753,190.396 119.5,192C 127.159,192.5 134.826,192.666 142.5,192.5C 142.158,193.338 141.492,193.672 140.5,193.5C 133.159,193.666 125.826,193.5 118.5,193C 117.756,191.961 116.756,191.461 115.5,191.5C 113.447,191.598 111.78,190.931 110.5,189.5 Z"/></g>
<g><path style="opacity:1" fill="#c1c1c1" d="M 115.5,191.5 C 116.756,191.461 117.756,191.961 118.5,193C 125.826,193.5 133.159,193.666 140.5,193.5C 132.657,194.82 124.657,194.82 116.5,193.5C 116.137,192.817 115.804,192.15 115.5,191.5 Z"/></g>
<g><path style="opacity:1" fill="#373737" d="M 56.5,192.5 C 57.1665,203.328 57.4999,214.328 57.5,225.5C 57.4989,236.854 56.8322,247.854 55.5,258.5C 54.8333,258.5 54.5,258.167 54.5,257.5C 56.489,236.192 57.1557,214.526 56.5,192.5 Z"/></g>
<g><path style="opacity:1" fill="#969696" d="M 205.5,191.5 C 205.217,192.289 204.717,192.956 204,193.5C 203.167,215.174 203.334,236.841 204.5,258.5C 205.417,257.873 206.417,257.539 207.5,257.5C 206.341,259.25 204.674,260.25 202.5,260.5C 202.333,237.831 202.5,215.164 203,192.5C 203.671,191.748 204.504,191.414 205.5,191.5 Z"/></g>
<g><path style="opacity:1" fill="#9e9e9e" d="M 56.5,192.5 C 56.5,192.167 56.5,191.833 56.5,191.5C 57.8323,202.48 58.4989,213.813 58.5,225.5C 58.4999,237.005 58.1665,248.338 57.5,259.5C 56.5084,259.672 55.8417,259.338 55.5,258.5C 56.8322,247.854 57.4989,236.854 57.5,225.5C 57.4999,214.328 57.1665,203.328 56.5,192.5 Z"/></g>
<g><path style="opacity:1" fill="#b9b9b9" d="M 70.5,199.5 C 68.5106,221.475 67.844,243.808 68.5,266.5C 67.8333,266.5 67.5,266.167 67.5,265.5C 67.5,243.167 67.5,220.833 67.5,198.5C 68.791,198.263 69.791,198.596 70.5,199.5 Z"/></g>
<g><path style="opacity:1" fill="#bfbfbf" d="M 190.5,199.5 C 191.209,198.596 192.209,198.263 193.5,198.5C 193.5,220.833 193.5,243.167 193.5,265.5C 193.5,266.167 193.167,266.5 192.5,266.5C 192.5,244.5 192.5,222.5 192.5,200.5C 192.158,199.662 191.492,199.328 190.5,199.5 Z"/></g>
<g><path style="opacity:1" fill="#404040" d="M 70.5,199.5 C 70.5,199.833 70.5,200.167 70.5,200.5C 69.3372,221.996 69.1705,243.663 70,265.5C 70.7172,266.044 71.2172,266.711 71.5,267.5C 70.391,267.443 69.391,267.11 68.5,266.5C 67.844,243.808 68.5106,221.475 70.5,199.5 Z"/></g>
<g><path style="opacity:1" fill="#212121" d="M 70.5,200.5 C 73.0739,202.024 75.7406,203.358 78.5,204.5C 79.8993,205.89 81.5659,206.89 83.5,207.5C 85.5664,209.199 87.8997,210.532 90.5,211.5C 91.8993,212.89 93.5659,213.89 95.5,214.5C 97.5664,216.199 99.8997,217.532 102.5,218.5C 102.973,219.906 103.973,220.573 105.5,220.5C 105.842,221.338 106.508,221.672 107.5,221.5C 109.566,223.199 111.9,224.532 114.5,225.5C 114.973,226.906 115.973,227.573 117.5,227.5C 117.973,228.906 118.973,229.573 120.5,229.5C 120.842,230.338 121.508,230.672 122.5,230.5C 123.478,252.121 123.811,273.788 123.5,295.5C 121.784,295.371 120.117,295.038 118.5,294.5C 102.336,286.255 86.6693,277.255 71.5,267.5C 71.2172,266.711 70.7172,266.044 70,265.5C 69.1705,243.663 69.3372,221.996 70.5,200.5 Z"/></g>
<g><path style="opacity:1" fill="#bcbcbc" d="M 70.5,200.5 C 70.5,200.167 70.5,199.833 70.5,199.5C 73.6712,200.436 76.3379,202.103 78.5,204.5C 75.7406,203.358 73.0739,202.024 70.5,200.5 Z"/></g>
<g><path style="opacity:1" fill="#212121" d="M 189.5,201.5 C 191.489,222.808 192.156,244.474 191.5,266.5C 189.973,266.427 188.973,267.094 188.5,268.5C 184.756,268.928 181.756,270.595 179.5,273.5C 177.973,273.427 176.973,274.094 176.5,275.5C 174.62,275.229 173.287,275.896 172.5,277.5C 170.326,277.75 168.659,278.75 167.5,280.5C 165.821,280.285 164.821,280.952 164.5,282.5C 162.62,282.229 161.287,282.896 160.5,284.5C 159.035,285.737 157.368,286.737 155.5,287.5C 153.62,287.229 152.287,287.896 151.5,289.5C 148.992,291.924 145.992,293.59 142.5,294.5C 140.973,294.427 139.973,295.094 139.5,296.5C 138.833,296.5 138.167,296.5 137.5,296.5C 137.333,275.164 137.5,253.831 138,232.5C 138.717,231.956 139.217,231.289 139.5,230.5C 141.389,229.396 143.055,228.063 144.5,226.5C 146.191,224.988 148.191,223.988 150.5,223.5C 152.853,222.66 154.853,221.326 156.5,219.5C 156.833,219.5 157.167,219.5 157.5,219.5C 168.403,213.933 179.069,207.933 189.5,201.5 Z"/></g>
<g><path style="opacity:1" fill="#444444" d="M 189.5,201.5 C 190.209,200.596 191.209,200.263 192.5,200.5C 192.5,222.5 192.5,244.5 192.5,266.5C 192.167,266.5 191.833,266.5 191.5,266.5C 192.156,244.474 191.489,222.808 189.5,201.5 Z"/></g>
<g><path style="opacity:1" fill="#888888" d="M 190.5,199.5 C 191.492,199.328 192.158,199.662 192.5,200.5C 191.209,200.263 190.209,200.596 189.5,201.5C 179.069,207.933 168.403,213.933 157.5,219.5C 167.923,212.118 178.923,205.451 190.5,199.5 Z"/></g>
<g><path style="opacity:1" fill="#b3b3b3" d="M 83.5,207.5 C 86.5458,207.725 88.8791,209.058 90.5,211.5C 87.8997,210.532 85.5664,209.199 83.5,207.5 Z"/></g>
<g><path style="opacity:1" fill="#afafaf" d="M 95.5,214.5 C 98.5458,214.725 100.879,216.058 102.5,218.5C 99.8997,217.532 97.5664,216.199 95.5,214.5 Z"/></g>
<g><path style="opacity:1" fill="#8e8e8e" d="M 102.5,218.5 C 104.027,218.427 105.027,219.094 105.5,220.5C 103.973,220.573 102.973,219.906 102.5,218.5 Z"/></g>
<g><path style="opacity:1" fill="#aaaaaa" d="M 107.5,221.5 C 110.546,221.725 112.879,223.058 114.5,225.5C 111.9,224.532 109.566,223.199 107.5,221.5 Z"/></g>
<g><path style="opacity:1" fill="#888888" d="M 156.5,219.5 C 154.853,221.326 152.853,222.66 150.5,223.5C 151.802,221.178 153.802,219.845 156.5,219.5 Z"/></g>
<g><path style="opacity:1" fill="#888888" d="M 114.5,225.5 C 116.027,225.427 117.027,226.094 117.5,227.5C 115.973,227.573 114.973,226.906 114.5,225.5 Z"/></g>
<g><path style="opacity:0.584" fill="#747474" d="M 2.5,227.5 C 4.02694,227.427 5.02694,228.094 5.5,229.5C 3.97306,229.573 2.97306,228.906 2.5,227.5 Z"/></g>
<g><path style="opacity:1" fill="#707070" d="M 117.5,227.5 C 118.167,227.5 118.833,227.5 119.5,227.5C 119.833,228.167 120.167,228.833 120.5,229.5C 118.973,229.573 117.973,228.906 117.5,227.5 Z"/></g>
<g><path style="opacity:1" fill="#8d8d8d" d="M 144.5,226.5 C 143.055,228.063 141.389,229.396 139.5,230.5C 138.391,230.557 137.391,230.89 136.5,231.5C 138.582,229.12 141.249,227.454 144.5,226.5 Z"/></g>
<g><path style="opacity:1" fill="#343434" d="M 122.5,230.5 C 123.5,230.833 124.167,231.5 124.5,232.5C 124.5,253.833 124.5,275.167 124.5,296.5C 123.5,296.5 122.5,296.5 121.5,296.5C 119.973,296.573 118.973,295.906 118.5,294.5C 120.117,295.038 121.784,295.371 123.5,295.5C 123.811,273.788 123.478,252.121 122.5,230.5 Z"/></g>
<g><path style="opacity:1" fill="#373737" d="M 139.5,230.5 C 139.217,231.289 138.717,231.956 138,232.5C 137.5,253.831 137.333,275.164 137.5,296.5C 136.503,275.006 136.169,253.34 136.5,231.5C 137.391,230.89 138.391,230.557 139.5,230.5 Z"/></g>
<g><path style="opacity:1" fill="#555555" d="M 12.5,233.5 C 14.9893,233.241 16.656,234.241 17.5,236.5C 15.5659,235.89 13.8993,234.89 12.5,233.5 Z"/></g>
<g><path style="opacity:1" fill="#999999" d="M 253.5,231.5 C 246.328,236.589 238.661,240.923 230.5,244.5C 237.165,238.491 244.832,234.158 253.5,231.5 Z"/></g>
<g><path style="opacity:1" fill="#616161" d="M 124.5,232.5 C 125.497,254.327 125.831,276.327 125.5,298.5C 123.847,298.34 122.514,297.674 121.5,296.5C 122.5,296.5 123.5,296.5 124.5,296.5C 124.5,275.167 124.5,253.833 124.5,232.5 Z"/></g>
<g><path style="opacity:1" fill="#b0b0b0" d="M 119.5,227.5 C 121.861,228.435 124.028,229.768 126,231.5C 126.83,254.004 126.663,276.337 125.5,298.5C 125.831,276.327 125.497,254.327 124.5,232.5C 124.167,231.5 123.5,230.833 122.5,230.5C 121.508,230.672 120.842,230.338 120.5,229.5C 120.167,228.833 119.833,228.167 119.5,227.5 Z"/></g>
<g><path style="opacity:1" fill="#737373" d="M 136.5,231.5 C 136.169,253.34 136.503,275.006 137.5,296.5C 138.167,296.5 138.833,296.5 139.5,296.5C 138.486,297.674 137.153,298.34 135.5,298.5C 135.169,275.994 135.503,253.66 136.5,231.5 Z"/></g>
<g><path style="opacity:0.918" fill="#6d6d6d" d="M 21.5,238.5 C 23.0269,238.427 24.0269,239.094 24.5,240.5C 22.9731,240.573 21.9731,239.906 21.5,238.5 Z"/></g>
<g><path style="opacity:0.584" fill="#6b6b6b" d="M 28.5,242.5 C 30.0269,242.427 31.0269,243.094 31.5,244.5C 29.9731,244.573 28.9731,243.906 28.5,242.5 Z"/></g>
<g><path style="opacity:0.616" fill="#6b6b6b" d="M 35.5,246.5 C 37.0269,246.427 38.0269,247.094 38.5,248.5C 36.9731,248.573 35.9731,247.906 35.5,246.5 Z"/></g>
<g><path style="opacity:0.725" fill="#939393" d="M 230.5,244.5 C 223.996,249.255 216.996,253.255 209.5,256.5C 215.731,251.238 222.731,247.238 230.5,244.5 Z"/></g>
<g><path style="opacity:0.549" fill="#717171" d="M 47.5,253.5 C 49.0269,253.427 50.0269,254.094 50.5,255.5C 48.9731,255.573 47.9731,254.906 47.5,253.5 Z"/></g>
<g><path style="opacity:0.18" fill="#9b9b9b" d="M 191.5,266.5 C 191.833,266.5 192.167,266.5 192.5,266.5C 191.486,267.674 190.153,268.34 188.5,268.5C 188.973,267.094 189.973,266.427 191.5,266.5 Z"/></g>
<g><path style="opacity:0.541" fill="#868686" d="M 188.5,268.5 C 185.992,270.924 182.992,272.59 179.5,273.5C 181.756,270.595 184.756,268.928 188.5,268.5 Z"/></g>
<g><path style="opacity:0.031" fill="#9e9e9e" d="M 179.5,273.5 C 179.027,274.906 178.027,275.573 176.5,275.5C 176.973,274.094 177.973,273.427 179.5,273.5 Z"/></g>
<g><path style="opacity:0.275" fill="#838383" d="M 176.5,275.5 C 175.486,276.674 174.153,277.34 172.5,277.5C 173.287,275.896 174.62,275.229 176.5,275.5 Z"/></g>
<g><path style="opacity:0.02" fill="#8a8a8a" d="M 172.5,277.5 C 171.341,279.25 169.674,280.25 167.5,280.5C 168.659,278.75 170.326,277.75 172.5,277.5 Z"/></g>
<g><path style="opacity:0.753" fill="#747474" d="M 167.5,280.5 C 166.71,281.401 165.71,282.068 164.5,282.5C 164.821,280.952 165.821,280.285 167.5,280.5 Z"/></g>
<g><path style="opacity:0.125" fill="#909090" d="M 164.5,282.5 C 163.486,283.674 162.153,284.34 160.5,284.5C 161.287,282.896 162.62,282.229 164.5,282.5 Z"/></g>
<g><path style="opacity:0.231" fill="#7a7a7a" d="M 155.5,287.5 C 154.486,288.674 153.153,289.34 151.5,289.5C 152.287,287.896 153.62,287.229 155.5,287.5 Z"/></g>
<g><path style="opacity:0.086" fill="#7a7a7a" d="M 142.5,294.5 C 142.027,295.906 141.027,296.573 139.5,296.5C 139.973,295.094 140.973,294.427 142.5,294.5 Z"/></g>
</svg>
