<?xml version="1.0" encoding="UTF-8"?>
<!DOCTYPE svg PUBLIC "-//W3C//DTD SVG 1.1//EN" "http://www.w3.org/Graphics/SVG/1.1/DTD/svg11.dtd">
<svg xmlns="http://www.w3.org/2000/svg" version="1.1" width="660px" height="256px" style="shape-rendering:geometricPrecision; text-rendering:geometricPrecision; image-rendering:optimizeQuality; fill-rule:evenodd; clip-rule:evenodd" xmlns:xlink="http://www.w3.org/1999/xlink">
<g><path style="opacity:0.908" fill="#000000" d="M 392.5,94.5 C 400.167,94.5 407.833,94.5 415.5,94.5C 415.333,115.836 415.5,137.169 416,158.5C 417.11,160.037 418.61,160.703 420.5,160.5C 420.756,162.792 420.423,164.959 419.5,167C 410.506,167.5 401.506,167.666 392.5,167.5C 392.192,165.076 392.526,162.743 393.5,160.5C 395.134,160.032 396.3,159.032 397,157.5C 397.667,139.833 397.667,122.167 397,104.5C 395.826,102.329 393.993,101.329 391.5,101.5C 391.298,99.0504 391.631,96.717 392.5,94.5 Z"/></g>
<g><path style="opacity:0.922" fill="#000000" d="M 65.5,97.5 C 74.8333,97.5 84.1667,97.5 93.5,97.5C 96.8272,109.315 100.66,120.982 105,132.5C 109.785,121.32 114.285,109.986 118.5,98.5C 127.141,97.502 135.808,97.1686 144.5,97.5C 144.5,99.8333 144.5,102.167 144.5,104.5C 142.61,104.297 141.11,104.963 140,106.5C 139.333,123.5 139.333,140.5 140,157.5C 140.7,159.032 141.866,160.032 143.5,160.5C 144.474,162.743 144.808,165.076 144.5,167.5C 135.167,167.5 125.833,167.5 116.5,167.5C 116.192,165.076 116.526,162.743 117.5,160.5C 119.134,160.032 120.3,159.032 121,157.5C 121.667,145.833 121.667,134.167 121,122.5C 115.997,134.677 111.497,147.01 107.5,159.5C 103.233,159.797 99.0659,159.464 95,158.5C 91,147.167 87,135.833 83,124.5C 82.3333,135.833 82.3333,147.167 83,158.5C 86.7735,160.225 88.2735,163.225 87.5,167.5C 80.1667,167.5 72.8333,167.5 65.5,167.5C 64.7265,163.225 66.2265,160.225 70,158.5C 70.6667,141.167 70.6667,123.833 70,106.5C 68.8904,104.963 67.3904,104.297 65.5,104.5C 65.5,102.167 65.5,99.8333 65.5,97.5 Z"/></g>
<g><path style="opacity:0.903" fill="#000000" d="M 152.5,97.5 C 162.167,97.5 171.833,97.5 181.5,97.5C 181.5,99.8333 181.5,102.167 181.5,104.5C 179.61,104.297 178.11,104.963 177,106.5C 176.5,123.497 176.333,140.497 176.5,157.5C 180.182,157.665 183.848,157.499 187.5,157C 188.416,156.626 189.25,156.126 190,155.5C 191.9,151.797 193.4,147.963 194.5,144C 197.817,143.502 201.15,143.335 204.5,143.5C 203.944,151.192 203.277,158.859 202.5,166.5C 185.847,167.499 169.18,167.833 152.5,167.5C 151.726,163.225 153.226,160.225 157,158.5C 157.833,140.824 157.666,123.157 156.5,105.5C 155.264,104.754 153.93,104.421 152.5,104.5C 152.5,102.167 152.5,99.8333 152.5,97.5 Z"/></g>
<g><path style="opacity:0.921" fill="#000000" d="M 208.5,97.5 C 228.833,97.5 249.167,97.5 269.5,97.5C 269.5,104.167 269.5,110.833 269.5,117.5C 266.167,117.5 262.833,117.5 259.5,117.5C 259.438,110.104 255.771,106.438 248.5,106.5C 248.333,123.837 248.5,141.17 249,158.5C 250.584,159.861 252.418,160.528 254.5,160.5C 254.5,162.833 254.5,165.167 254.5,167.5C 244.167,167.5 233.833,167.5 223.5,167.5C 223.5,165.167 223.5,162.833 223.5,160.5C 225.582,160.528 227.416,159.861 229,158.5C 229.5,141.17 229.667,123.837 229.5,106.5C 222.716,106.279 219.05,109.613 218.5,116.5C 215.232,117.487 211.898,117.82 208.5,117.5C 208.5,110.833 208.5,104.167 208.5,97.5 Z"/></g>
<g><path style="opacity:0.918" fill="#000000" d="M 297.5,114.5 C 316.816,112.99 326.816,121.823 327.5,141C 327.239,158.761 318.239,167.594 300.5,167.5C 283.381,167.38 275.048,158.713 275.5,141.5C 275.595,126.42 282.928,117.42 297.5,114.5 Z M 298.5,123.5 C 304.205,123.032 307.372,125.698 308,131.5C 308.667,138.5 308.667,145.5 308,152.5C 305.095,160.812 301.095,161.479 296,154.5C 292.256,143.684 293.089,133.351 298.5,123.5 Z"/></g>
<g><path style="opacity:0.918" fill="#000000" d="M 356.5,114.5 C 375.816,112.99 385.816,121.823 386.5,141C 386.239,158.761 377.239,167.594 359.5,167.5C 342.381,167.38 334.048,158.713 334.5,141.5C 334.562,126.449 341.895,117.449 356.5,114.5 Z M 357.5,123.5 C 363.205,123.032 366.372,125.698 367,131.5C 367.667,138.5 367.667,145.5 367,152.5C 364.095,160.812 360.095,161.479 355,154.5C 351.256,143.684 352.089,133.351 357.5,123.5 Z"/></g>
<g><path style="opacity:0.906" fill="#000000" d="M 444.5,114.5 C 451.903,114.509 459.237,115.176 466.5,116.5C 466.5,121.5 466.5,126.5 466.5,131.5C 463.482,131.665 460.482,131.498 457.5,131C 454.542,122.852 449.875,121.519 443.5,127C 444.453,128.955 445.787,130.622 447.5,132C 451.953,133.726 456.286,135.726 460.5,138C 469.382,146.374 469.715,155.04 461.5,164C 456.032,166.87 450.199,168.037 444,167.5C 437.747,167.514 431.58,166.847 425.5,165.5C 425.5,160.5 425.5,155.5 425.5,150.5C 428.898,150.18 432.232,150.513 435.5,151.5C 438.397,159.299 443.231,160.965 450,156.5C 450.458,153.904 449.625,151.737 447.5,150C 440.275,147.807 434.108,143.974 429,138.5C 425.057,131.105 426.224,124.605 432.5,119C 436.432,116.972 440.432,115.472 444.5,114.5 Z"/></g>
</svg>
